<svg width="64" height="64" viewBox="0 0 64 64" fill="none" xmlns="http://www.w3.org/2000/svg">
  <rect width="64" height="64" rx="14" fill="#14916D"/>
  <path d="M18 16H34.5C41 16 45.5 19.8 45.5 25.2C45.5 28.5 43.8 31.1 40.9 32.5C44.7 33.8 47 36.7 47 40.8C47 47.1 42.1 51 34.8 51H18V16ZM28.1 29.7H33.3C36.2 29.7 38 28.4 38 26.1C38 23.8 36.2 22.5 33.3 22.5H25.7V44.4H34.1C37.4 44.4 39.3 42.9 39.3 40.3C39.3 37.7 37.3 36.2 33.9 36.2H28.1V29.7Z" fill="white"/>
  <path d="M27 29.7H18V36.2H27V29.7Z" fill="#D2F7EB"/>
</svg>
